g VentStraight_Mesh
v -5 0 -5
v 5 0 -5
v 5 10 -5
v -5 10 -5
v -1.5 6.5 -5
v 1.5 6.5 -5
v 1.5 3.5 -5
v -1.5 3.5 -5
v 1.5 6.5 5
v 1.5 6.5 -5
v -1.5 6.5 -5
v -1.5 6.5 5
v -1.5 6.5 5
v -1.5 6.5 -5
v -1.5 3.5 -5
v -1.5 3.5 5
v -1.5 3.5 5
v -1.5 3.5 -5
v 1.5 3.5 -5
v 1.5 3.5 5
v 1.5 3.5 5
v 1.5 3.5 -5
v 1.5 6.5 -5
v 1.5 6.5 5
v 5 0 5
v -5 0 5
v -5 10 5
v 5 10 5
v 1.5 3.5 5
v 1.5 6.5 5
v -1.5 6.5 5
v -1.5 3.5 5
vt 5 0
vt -5 0
vt -5 -10
vt 5 -10
vt 1.5 -6.5
vt -1.5 -6.5
vt -1.5 -3.5
vt 1.5 -3.5
vt -1.5 -5
vt -1.5 5
vt 1.5 5
vt 1.5 -5
vt 5 -6.5
vt -5 -6.5
vt -5 -3.5
vt 5 -3.5
vt -1.5 5
vt -1.5 -5
vt 1.5 -5
vt 1.5 5
vt -5 -3.5
vt 5 -3.5
vt 5 -6.5
vt -5 -6.5
vt 5 0
vt -5 0
vt -5 -10
vt 5 -10
vt 1.5 -3.5
vt 1.5 -6.5
vt -1.5 -6.5
vt -1.5 -3.5
vn 0 0 -1
vn 0 0 -1
vn 0 0 -1
vn 0 0 -1
vn 0 0 -1
vn 0 0 -1
vn 0 0 -1
vn 0 0 -1
vn 0 -1 0
vn 0 -1 0
vn 0 -1 0
vn 0 -1 0
vn 1 0 0
vn 1 0 0
vn 1 0 0
vn 1 0 0
vn 0 1 0
vn 0 1 0
vn 0 1 0
vn 0 1 0
vn -1 0 0
vn -1 0 0
vn -1 0 0
vn -1 0 0
vn 0 0 1
vn 0 0 1
vn 0 0 1
vn 0 0 1
vn 0 0 1
vn 0 0 1
vn 0 0 1
vn 0 0 1
g VentStraight_Mesh_0
f 2/2/2 1/1/1 8/8/8
f 8/8/8 1/1/1 5/5/5
f 6/6/6 5/5/5 4/4/4
f 5/5/5 1/1/1 4/4/4
f 2/2/2 8/8/8 7/7/7
f 2/2/2 7/7/7 6/6/6
f 6/6/6 4/4/4 3/3/3
f 2/2/2 6/6/6 3/3/3
f 11/11/11 10/10/10 9/9/9
f 12/12/12 11/11/11 9/9/9
f 15/15/15 14/14/14 13/13/13
f 16/16/16 15/15/15 13/13/13
f 19/19/19 18/18/18 17/17/17
f 20/20/20 19/19/19 17/17/17
f 23/23/23 22/22/22 21/21/21
f 24/24/24 23/23/23 21/21/21
f 26/26/26 25/25/25 29/29/29
f 29/29/29 25/25/25 30/30/30
f 31/31/31 30/30/30 28/28/28
f 30/30/30 25/25/25 28/28/28
f 26/26/26 29/29/29 32/32/32
f 26/26/26 32/32/32 31/31/31
f 31/31/31 28/28/28 27/27/27
f 26/26/26 31/31/31 27/27/27
