g VentCorner_Mesh
v -5 0 5
v -5 0 -5
v -5 10 -5
v -5 10 5
v -5 3.5 1.5
v -5 6.5 1.5
v -5 6.5 -1.5
v -5 3.5 -1.5
v 5 0 5
v -5 0 5
v -5 10 5
v 5 10 5
v 1.5 3.5 5
v 1.5 6.5 5
v -1.5 6.5 5
v -1.5 3.5 5
v 1.5 3.5 5
v 1.5 3.5 -1.5
v 1.5 6.5 -1.5
v 1.5 6.5 5
v 1.5 3.5 -1.5
v -5 3.5 -1.5
v -5 6.5 -1.5
v 1.5 6.5 -1.5
v -1.5 3.5 1.5
v -1.5 3.5 5
v -1.5 6.5 5
v -1.5 6.5 1.5
v 1.5 3.5 1.5
v 1.5 3.5 5
v -1.5 3.5 5
v -1.5 3.5 1.5
v -1.5 6.5 1.5
v -1.5 6.5 5
v 1.5 6.5 5
v 1.5 6.5 1.5
v -1.5 6.5 1.5
v -5 6.5 1.5
v -5 3.5 1.5
v -1.5 3.5 1.5
v 1.5 3.5 1.5
v -5 3.5 1.5
v -5 3.5 -1.5
v 1.5 3.5 -1.5
v 1.5 6.5 1.5
v 1.5 6.5 -1.5
v -5 6.5 -1.5
v -5 6.5 1.5
vt 5 0
vt -5 0
vt -5 -10
vt 5 -10
vt 1.5 -3.5
vt 1.5 -6.5
vt -1.5 -6.5
vt -1.5 -3.5
vt 5 0
vt -5 0
vt -5 -10
vt 5 -10
vt 1.5 -3.5
vt 1.5 -6.5
vt -1.5 -6.5
vt -1.5 -3.5
vt 3.004848 -4
vt 1.035151 -4
vt 1.035151 -5
vt 3.004848 -5
vt -0.9901515 -4
vt -2.959848 -4
vt -2.959848 -5
vt -0.9901515 -5
vt -2.1225 -3.99
vt -2.9975 -3.99
vt -2.9975 -4.99
vt -2.1225 -4.99
vt 0.00999999 -2.1225
vt 0.00999999 -2.9975
vt 1.01 -2.9975
vt 1.01 -2.1225
vt 0.00999999 3.1325
vt 0.00999999 4.0075
vt 1.01 4.0075
vt 1.01 3.1325
vt 2.9975 -5
vt 3.8725 -5
vt 3.8725 -4
vt 2.9975 -4
vt 1.3805 0
vt 3.0055 0
vt 3.0055 1
vt 1.3805 1
vt -0.3795 0.9999999
vt -0.3795 0
vt -2.0045 0
vt -2.0045 1
g VentCorner_Mesh_0
f 2/2/2 1/1/1 5/5/5
f 5/5/5 1/1/1 6/6/6
f 7/7/7 6/6/6 4/4/4
f 6/6/6 1/1/1 4/4/4
f 2/2/2 5/5/5 8/8/8
f 2/2/2 8/8/8 7/7/7
f 7/7/7 4/4/4 3/3/3
f 2/2/2 7/7/7 3/3/3
f 10/10/10 9/9/9 13/13/13
f 13/13/13 9/9/9 14/14/14
f 15/15/15 14/14/14 12/12/12
f 14/14/14 9/9/9 12/12/12
f 10/10/10 13/13/13 16/16/16
f 10/10/10 16/16/16 15/15/15
f 15/15/15 12/12/12 11/11/11
f 10/10/10 15/15/15 11/11/11
f 19/19/19 18/18/18 17/17/17
f 20/20/20 19/19/19 17/17/17
f 23/23/23 22/22/22 21/21/21
f 24/24/24 23/23/23 21/21/21
f 27/27/27 26/26/26 25/25/25
f 28/28/28 27/27/27 25/25/25
f 31/31/31 30/30/30 29/29/29
f 32/32/32 31/31/31 29/29/29
f 35/35/35 34/34/34 33/33/33
f 36/36/36 35/35/35 33/33/33
f 39/39/39 38/38/38 37/37/37
f 40/40/40 39/39/39 37/37/37
f 43/43/43 42/42/42 41/41/41
f 44/44/44 43/43/43 41/41/41
f 47/47/47 46/46/46 45/45/45
f 48/48/48 47/47/47 45/45/45
