g Whirlpool_Mesh
v 1.168954E-07 3.101 5
v -2.766227E-08 0.001 1.355053E-07
v 1.913417 3.101 4.619398
v -1.913417 3.101 4.619398
v -2.766227E-08 0.001 1.355053E-07
v 1.168954E-07 3.101 5
v -3.535534 3.101 3.535534
v -2.766227E-08 0.001 1.355053E-07
v -1.913417 3.101 4.619398
v -4.619398 3.101 1.913417
v -2.766227E-08 0.001 1.355053E-07
v -3.535534 3.101 3.535534
v -5 3.101 -2.648291E-07
v -2.766227E-08 0.001 1.355053E-07
v -4.619398 3.101 1.913417
v -4.619398 3.101 -1.913418
v -2.766227E-08 0.001 1.355053E-07
v -5 3.101 -2.648291E-07
v -3.535534 3.101 -3.535534
v -2.766227E-08 0.001 1.355053E-07
v -4.619398 3.101 -1.913418
v -1.913416 3.100999 -4.619398
v -2.766227E-08 0.001 1.355053E-07
v -3.535534 3.101 -3.535534
v 3.75543E-07 3.100999 -5
v -2.766227E-08 0.001 1.355053E-07
v -1.913416 3.100999 -4.619398
v 1.913416 3.100999 -4.619398
v -2.766227E-08 0.001 1.355053E-07
v 3.75543E-07 3.100999 -5
v 3.535534 3.100999 -3.535534
v -2.766227E-08 0.001 1.355053E-07
v 1.913416 3.100999 -4.619398
v 4.619398 3.101 -1.913418
v -2.766227E-08 0.001 1.355053E-07
v 3.535534 3.100999 -3.535534
v 5 3.101 -4.432954E-07
v -2.766227E-08 0.001 1.355053E-07
v 4.619398 3.101 -1.913418
v 4.619398 3.101 1.913417
v -2.766227E-08 0.001 1.355053E-07
v 5 3.101 -4.432954E-07
v 3.535534 3.101 3.535534
v -2.766227E-08 0.001 1.355053E-07
v 4.619398 3.101 1.913417
v 1.913417 3.101 4.619398
v -2.766227E-08 0.001 1.355053E-07
v 3.535534 3.101 3.535534
vt 1 0.5
vt 0.5 0.5
vt 0.9619398 0.6913418
vt 0.9619398 0.3086583
vt 0.5 0.5
vt 1 0.5
vt 0.8535534 0.1464466
vt 0.5 0.5
vt 0.9619398 0.3086583
vt 0.6913417 0.03806024
vt 0.5 0.5
vt 0.8535534 0.1464466
vt 0.5 0
vt 0.5 0.5
vt 0.6913417 0.03806024
vt 0.3086582 0.03806024
vt 0.5 0.5
vt 0.5 0
vt 0.1464466 0.1464466
vt 0.5 0.5
vt 0.3086582 0.03806024
vt 0.03806017 0.3086584
vt 0.5 0.5
vt 0.1464466 0.1464466
vt 0 0.5000001
vt 0.5 0.5
vt 0.03806017 0.3086584
vt 0.03806017 0.6913416
vt 0.5 0.5
vt 0 0.5000001
vt 0.1464466 0.8535534
vt 0.5 0.5
vt 0.03806017 0.6913416
vt 0.3086582 0.9619398
vt 0.5 0.5
vt 0.1464466 0.8535534
vt 0.5 1
vt 0.5 0.5
vt 0.3086582 0.9619398
vt 0.6913417 0.9619398
vt 0.5 0.5
vt 0.5 1
vt 0.8535534 0.8535534
vt 0.5 0.5
vt 0.6913417 0.9619398
vt 0.9619398 0.6913418
vt 0.5 0.5
vt 0.8535534 0.8535534
g Whirlpool_Mesh_0
f 3/3/3 2/2/2 1/1/1
f 6/6/6 5/5/5 4/4/4
f 9/9/9 8/8/8 7/7/7
f 12/12/12 11/11/11 10/10/10
f 15/15/15 14/14/14 13/13/13
f 18/18/18 17/17/17 16/16/16
f 21/21/21 20/20/20 19/19/19
f 24/24/24 23/23/23 22/22/22
f 27/27/27 26/26/26 25/25/25
f 30/30/30 29/29/29 28/28/28
f 33/33/33 32/32/32 31/31/31
f 36/36/36 35/35/35 34/34/34
f 39/39/39 38/38/38 37/37/37
f 42/42/42 41/41/41 40/40/40
f 45/45/45 44/44/44 43/43/43
f 48/48/48 47/47/47 46/46/46
